<?xml version="1.0" standalone="no"?><!DOCTYPE svg PUBLIC "-//W3C//DTD SVG 1.1//EN" "http://www.w3.org/Graphics/SVG/1.1/DTD/svg11.dtd"><svg t="1565921400311" class="icon" viewBox="0 0 1024 1024" version="1.1" xmlns="http://www.w3.org/2000/svg" p-id="5860" xmlns:xlink="http://www.w3.org/1999/xlink" width="200" height="200"><defs><style type="text/css"></style></defs><path d="M123 537.1c0-51.5 10.2-101.7 30.4-149 19.5-45.8 47.4-87 82.9-122.5 35.5-35.5 76.7-63.4 122.5-82.9 35.6-15.2 72.7-24.7 110.8-28.5v421.2h38.2l383 0.1c-3.8 38.1-13.4 75.2-28.5 110.8-19.5 45.8-47.4 87-82.9 122.5-35.5 35.5-76.7 63.4-122.5 82.9-47.4 20.2-97.5 30.4-149 30.4s-101.7-10.2-149-30.4c-45.8-19.5-87-47.4-122.5-82.9s-63.4-76.7-82.9-122.5c-20.3-47.5-30.5-97.6-30.5-149.2m-38.2 0c0 232.1 191 423.1 423.1 423.1 232.1 0 423-190.9 423.1-423l-423.1-0.1V114C275.7 114 84.8 305 84.8 537.1z" fill="#5cadff" p-id="5861"></path><path d="M584.3 115.7c37.4 3.7 73.9 12.9 109 27.4 46.9 19.4 89 47.5 124.9 83.4 35.9 35.9 64 77.9 83.4 124.8 14.5 35.1 23.7 71.6 27.4 109H584.3V115.7m-38.2-40.1v423.1h423.1c0-112.2-44.6-219.8-123.9-299.1-79.4-79.4-187.1-124-299.2-124z" fill="#5cadff" p-id="5862"></path></svg>