<?xml version="1.0" standalone="no"?><!DOCTYPE svg PUBLIC "-//W3C//DTD SVG 1.1//EN" "http://www.w3.org/Graphics/SVG/1.1/DTD/svg11.dtd"><svg t="1565921785937" class="icon" viewBox="0 0 1024 1024" version="1.1" xmlns="http://www.w3.org/2000/svg" p-id="7381" xmlns:xlink="http://www.w3.org/1999/xlink" width="200" height="200"><defs><style type="text/css"></style></defs><path d="M511.3 919.7c-107.5 0-209-41.5-285.9-116.7-77-75.4-120.6-176.2-122.7-284-1.1-55.2 8.6-108.9 29-159.8 19.6-49.1 48.2-93.4 85-131.7 36.8-38.3 79.9-68.6 128.2-90.2 50-22.3 103.3-34.2 158.5-35.3 2.8-0.1 5.5-0.1 8.3-0.1 107.5 0 209 41.5 285.9 116.7 77 75.4 120.6 176.2 122.7 284 1.1 55.2-8.6 108.9-29 159.8-19.6 49.1-48.2 93.4-85 131.7-36.8 38.3-79.9 68.6-128.2 90.2-50 22.3-103.3 34.2-158.5 35.3-2.7 0-5.5 0.1-8.3 0.1z m0.3-789.7c-2.6 0-5.2 0-7.7 0.1-210 4.2-377.4 178.4-373.2 388.4 4.1 205.8 174.8 373.3 380.6 373.3 2.6 0 5.2 0 7.7-0.1 210-4.2 377.4-178.4 373.2-388.4-4-205.9-174.8-373.3-380.6-373.3z" fill="#bfbfbf" p-id="7382"></path><path d="M573.2 531.3c-1.2 0.6-2.3 1.2-3.5 1.8 1.2-0.5 2.3-1.1 3.5-1.8zM556.6 508.4c1.2-0.6 2.3-1.2 3.4-1.8-1.1 0.6-2.2 1.2-3.4 1.8z" fill="#bfbfbf" p-id="7383"></path><path d="M670.2 421.8c-0.8-41-17.1-79.2-45.9-107.6-28.8-28.4-66.6-43.6-106.5-42.8-39.9 0.8-77.1 17.6-104.8 47.1-24 25.7-38.3 58.3-41.2 93.3-0.7 8.7 6.1 16 14.6 15.8 7.3-0.1 13.3-5.9 14-13.4 2.3-28.3 13.9-54.7 33.3-75.4 22.4-23.9 52.5-37.4 84.7-38.1 32.3-0.6 62.9 11.6 86.2 34.6 23.3 23 36.5 53.9 37.1 87 0.6 33.2-11.3 64.6-33.7 88.5-8.7 9.3-18.5 17-29.2 23-1.2 0.7-2.3 1.3-3.5 1.9-13.3 7.5-25.6 17-36.5 28.6-4.1 4.4-8 9.1-11.5 13.9-17.1 23.1-27.3 50.5-29.6 79.5-0.7 8.6 6.1 15.9 14.6 15.8 7.3-0.1 13.3-5.9 14-13.4 2.3-28.3 13.9-54.7 33.3-75.4 8.7-9.3 18.5-17 29.2-23 1.2-0.7 2.3-1.3 3.5-1.9 13.3-7.5 25.6-17 36.4-28.6 4.1-4.4 8-9.1 11.5-13.9 20.1-27.3 30.7-60.6 30-95.5z" fill="#bfbfbf" p-id="7384"></path><path d="M511.8 675.6c-4.5 0-8.8-1.9-11.9-5.3-3.1-3.4-4.7-8-4.4-12.7 2.4-29.3 12.8-57.1 30-80.5 3.6-4.9 7.6-9.6 11.7-14 10.9-11.6 23.3-21.4 36.9-29 1.2-0.6 2.4-1.3 3.5-1.9 10.6-6 20.2-13.6 28.7-22.6 22-23.5 33.8-54.5 33.2-87.1-0.6-32.6-13.6-63.1-36.5-85.7-22.8-22.5-53-34.7-84.7-34-31.7 0.6-61.3 14-83.3 37.5-19.1 20.4-30.5 46.1-32.8 74.2-0.7 8.5-7.5 15-15.9 15.2h-0.3c-4.5 0-8.8-1.9-11.9-5.3-3.2-3.4-4.8-8.1-4.4-12.8 2.9-35.8 17.3-68.5 41.7-94.5 28-30 65.8-46.9 106.2-47.8 40.4-0.8 78.9 14.6 108 43.4 29.2 28.8 45.7 67.5 46.5 109 0.7 35.3-9.9 68.8-30.5 96.8-3.6 4.9-7.6 9.6-11.7 14-10.9 11.6-23.3 21.4-36.9 29-1.2 0.6-2.3 1.2-3.5 1.9-10.6 6-20.2 13.6-28.7 22.6-19.1 20.4-30.5 46.1-32.8 74.2-0.7 8.5-7.5 15-15.9 15.2l-0.3 0.2z m9-376.9c31.9 0 62.1 12.5 85.1 35.2 23.7 23.3 37 54.7 37.7 88.4 0.7 33.7-11.5 65.6-34.2 89.9-8.7 9.3-18.7 17.2-29.7 23.4-1.2 0.7-2.4 1.3-3.6 1.9-13.2 7.4-25.3 16.9-35.9 28.2-4 4.3-7.9 8.9-11.4 13.7-16.8 22.8-26.9 49.9-29.3 78.5-0.3 3.5 0.9 7.1 3.3 9.6 2.4 2.6 5.5 4 9 4h0.3c6.3-0.1 11.5-5.1 12-11.5 2.4-29 14.1-55.5 33.8-76.6 8.7-9.3 18.7-17.2 29.7-23.4 1.3-0.7 2.4-1.3 3.6-1.9 13.2-7.4 25.3-16.9 35.9-28.2 4-4.3 7.9-8.9 11.4-13.7 20.1-27.3 30.4-59.9 29.7-94.3-0.8-40.5-16.9-78.2-45.3-106.3-28.3-28-65.7-43-105.1-42.2-39.4 0.8-76.1 17.3-103.4 46.5-23.7 25.4-37.8 57.2-40.6 92.1-0.3 3.6 0.9 7.1 3.3 9.7 2.4 2.6 5.5 4 8.9 4h0.3c6.3-0.1 11.5-5.1 12-11.5 2.4-29 14.1-55.5 33.8-76.6 22.7-24.3 53.3-38.1 86.2-38.7 0.8-0.1 1.7-0.2 2.5-0.2z" fill="#bfbfbf" p-id="7385"></path><path d="M514.1 736.4m-24.8 0a24.8 24.8 0 1 0 49.6 0 24.8 24.8 0 1 0-49.6 0Z" fill="#bfbfbf" p-id="7386"></path></svg>