<?xml version="1.0" standalone="no"?><!DOCTYPE svg PUBLIC "-//W3C//DTD SVG 1.1//EN" "http://www.w3.org/Graphics/SVG/1.1/DTD/svg11.dtd"><svg t="1565922446500" class="icon" viewBox="0 0 1024 1024" version="1.1" xmlns="http://www.w3.org/2000/svg" p-id="16483" xmlns:xlink="http://www.w3.org/1999/xlink" width="200" height="200"><defs><style type="text/css"></style></defs><path d="M146.432 336.896h-81.92V106.496l40.96-40.96h231.424v81.92H146.432zM336.896 958.464H105.472l-40.96-40.96V687.104h81.92v189.44h190.464zM956.416 336.896h-81.92V147.456H684.032v-81.92h231.424l40.96 40.96zM915.456 958.464H613.376v-81.92h261.12V659.456h81.92v258.048z" fill="#437DFF" p-id="16484"></path><path d="M326.656 334.848h61.44v98.304h-61.44zM415.744 575.488h61.44v133.12h-61.44zM265.216 575.488h61.44v114.688h-61.44zM566.272 575.488h61.44v98.304h-61.44zM706.56 575.488h61.44v154.624h-61.44zM477.184 297.984h61.44v135.168h-61.44zM627.712 329.728h61.44v103.424h-61.44z" fill="#63F7DE" p-id="16485"></path><path d="M10.24 473.088h1003.52v61.44H10.24z" fill="#437DFF" p-id="16486"></path></svg>