<?xml version="1.0" standalone="no"?><!DOCTYPE svg PUBLIC "-//W3C//DTD SVG 1.1//EN" "http://www.w3.org/Graphics/SVG/1.1/DTD/svg11.dtd"><svg t="1544044793045" class="icon" style="" viewBox="0 0 1024 1024" version="1.1" xmlns="http://www.w3.org/2000/svg" p-id="31075" xmlns:xlink="http://www.w3.org/1999/xlink" width="32" height="32"><defs><style type="text/css"></style></defs><path d="M653.088 351.296a174.848 174.848 0 0 0-174.848 174.944 174.848 174.848 0 0 0 174.848 174.816 174.848 174.848 0 0 0 174.88-174.816 174.848 174.848 0 0 0-174.88-174.944z m-9.44 268.768a4.608 4.608 0 0 1-4.576 4.608h-79.904a4.672 4.672 0 0 1-4.64-4.608v-79.936c0-2.592 2.08-4.64 4.64-4.64h79.904c2.528 0 4.576 2.016 4.576 4.64v79.936z m0-109.728c0 2.56-2.016 4.576-4.576 4.576h-79.904a4.608 4.608 0 0 1-4.64-4.576v-79.968c0-2.464 2.08-4.576 4.64-4.576h79.904c2.528 0 4.576 2.112 4.576 4.576v79.968z m26.976-42.368l40.704-40.64a3.2 3.2 0 0 1 4.672 0l40.672 40.64a3.328 3.328 0 0 1 0 4.736l-40.672 40.64a3.2 3.2 0 0 1-4.672 0l-40.704-40.64a3.456 3.456 0 0 1 0-4.736z m87.616 152.096a4.672 4.672 0 0 1-4.64 4.608h-79.904a4.608 4.608 0 0 1-4.576-4.608v-79.936c0-2.592 2.016-4.64 4.576-4.64h79.904c2.528 0 4.64 2.016 4.64 4.64v79.936z" p-id="31076" fill="#1296db"></path><path d="M937.152 62.592H87.36c-48.256 0-87.36 40.672-87.36 90.816v561.184c0 50.272 44.896 93.152 93.184 93.152h372.544v93.056H232.832v60.608h558.944V900.8h-232.864v-93.056H931.456c48.32 0 93.088-42.88 93.088-93.152V153.408c0-50.144-39.008-90.816-87.392-90.816z m26.912 684.48l-285.984-2.464 0.128-0.448-29.088 0.128-14.72-0.128 0.032 0.256-573.824 2.656V123.2h903.456v623.872z" p-id="31077" fill="#1296db"></path><path d="M307.104 295.072l-49.856 0.256a12.32 12.32 0 1 0 0 24.608l49.888-0.096c6.848 0 12.384-5.472 12.384-12.32s-5.568-12.448-12.416-12.448zM393.632 295.072l-49.888 0.224a12.32 12.32 0 1 0 0 24.608l49.888-0.096a12.352 12.352 0 1 0 0-24.736zM480.096 295.072l-49.888 0.224a12.32 12.32 0 1 0 0 24.608l49.888-0.096a12.352 12.352 0 1 0 0-24.736zM307.104 356.896l-49.888 0.096a12.352 12.352 0 1 0 0 24.768l49.888-0.096c6.848 0 12.384-5.504 12.384-12.32s-5.536-12.448-12.384-12.448zM393.632 356.896l-49.888 0.096c-6.848 0-12.384 5.504-12.384 12.32s5.536 12.448 12.384 12.448l49.888-0.096a12.416 12.416 0 0 0 0-24.768zM480.096 356.896l-49.888 0.096a12.352 12.352 0 1 0 0 24.768l49.888-0.096a12.352 12.352 0 1 0 0-24.768zM307.104 418.72l-49.888 0.096a12.352 12.352 0 0 0-12.384 12.32 12.48 12.48 0 0 0 12.384 12.448l49.888-0.096a12.416 12.416 0 0 0 12.384-12.448 12.288 12.288 0 0 0-12.384-12.32zM393.632 418.72l-49.888 0.096a12.32 12.32 0 0 0-12.384 12.32c0 6.816 5.536 12.448 12.384 12.448l49.888-0.096a12.384 12.384 0 0 0 0-24.768zM480.096 418.72l-49.888 0.096a12.352 12.352 0 0 0-12.384 12.32 12.48 12.48 0 0 0 12.384 12.448l49.888-0.096a12.448 12.448 0 0 0 12.384-12.448 12.352 12.352 0 0 0-12.384-12.32z" p-id="31078" fill="#1296db"></path><path d="M200.8 235.392v399.936h336.192V235.392H200.8z m311.2 381.856H225.824V253.312h286.176v363.936z" p-id="31079" fill="#1296db"></path></svg>