<?xml version="1.0" standalone="no"?><!DOCTYPE svg PUBLIC "-//W3C//DTD SVG 1.1//EN" "http://www.w3.org/Graphics/SVG/1.1/DTD/svg11.dtd"><svg t="1544044774752" class="icon" style="" viewBox="0 0 1024 1024" version="1.1" xmlns="http://www.w3.org/2000/svg" p-id="30293" xmlns:xlink="http://www.w3.org/1999/xlink" width="32" height="32"><defs><style type="text/css"></style></defs><path d="M886.4 364.8l-9.6-9.6L928 304V435.2c32 0 60.8 25.6 60.8 60.8 0 32-25.6 60.8-60.8 60.8-32 0-60.8-25.6-60.8-60.8H832c0 51.2 41.6 96 96 96 51.2 0 96-41.6 96-96 0-41.6-25.6-76.8-60.8-89.6V272l-64-64-83.2 83.2-9.6-9.6-300.8 300.8V163.2c0-9.6-9.6-19.2-25.6-19.2H304c-48 0-76.8 19.2-92.8 99.2l-57.6 220.8h-64c-48 0-89.6 41.6-89.6 89.6v240H153.6c-3.2 9.6-3.2 19.2-3.2 28.8 0 64 51.2 115.2 115.2 115.2s115.2-51.2 115.2-115.2c0-9.6 0-19.2-3.2-28.8h387.2c-3.2 9.6-3.2 19.2-3.2 28.8 0 64 51.2 115.2 115.2 115.2s115.2-51.2 115.2-115.2c0-9.6 0-19.2-3.2-28.8H1024V704H550.4l336-339.2zM281.6 435.2c-19.2 0-48-28.8-41.6-51.2l41.6-160c3.2-12.8 28.8-28.8 41.6-28.8h112c12.8 0 32 28.8 32 38.4v163.2c0 22.4-25.6 38.4-44.8 38.4H281.6z" fill="#1296db" p-id="30294"></path></svg>