<?xml version="1.0" standalone="no"?><!DOCTYPE svg PUBLIC "-//W3C//DTD SVG 1.1//EN" "http://www.w3.org/Graphics/SVG/1.1/DTD/svg11.dtd"><svg t="1544044528692" class="icon" style="" viewBox="0 0 1024 1024" version="1.1" xmlns="http://www.w3.org/2000/svg" p-id="27429" xmlns:xlink="http://www.w3.org/1999/xlink" width="32" height="32"><defs><style type="text/css"></style></defs><path d="M542.15 342.8c-28.40625 0-55.29375 5.7375-80.94375 14.00625a23.0625 23.0625 0 0 0-12.375-3.99375H249.48125a23.625 23.625 0 0 0-20.41875 35.325 23.68125 23.68125 0 0 0 20.41875 11.75625h130.10625c-61.9875 48.65625-102.6 123.3-102.65625 208.125a265.3875 265.3875 0 0 0 265.1625 265.05 265.33125 265.33125 0 0 0 265.1625-265.05 265.3875 265.3875 0 0 0-265.10625-265.21875z m0 485.94375a221.0625 221.0625 0 0 1-220.78125-220.725 221.00625 221.00625 0 0 1 220.78125-220.8375 221.00625 221.00625 0 0 1 220.78125 220.8375 221.0625 221.0625 0 0 1-220.78125 220.725z" p-id="27430" fill="#1296db"></path><path d="M574.38125 566.61875l-35.8875-110.41875-35.8875 110.41875H386.3375l94.05 68.45625-36 110.5875 94.10625-68.23125 93.99375 68.23125-36-110.5875 94.21875-68.45625z" p-id="27431" fill="#1296db"></path><path d="M802.3625 62H221.75c-61.9875 0-112.5 50.45625-112.5 112.5v675.16875a112.78125 112.78125 0 0 0 112.5 112.33125h580.55625a112.6125 112.6125 0 0 0 112.3875-112.3875V174.5a112.5 112.5 0 0 0-112.33125-112.5z m54.28125 787.6125a54.28125 54.28125 0 0 1-54.28125 54.16875H221.75a54.225 54.225 0 0 1-54.16875-54.16875V174.55625c0-29.86875 24.3-54.16875 54.16875-54.16875l580.6125-0.05625c29.925 0 54.28125 24.3 54.28125 54.16875v675.1125z" p-id="27432" fill="#1296db"></path><path d="M249.48125 273.1625h507.43125a23.625 23.625 0 0 0 0-47.25H249.48125a23.625 23.625 0 0 0 0 47.25z" p-id="27433" fill="#1296db"></path></svg>