<?xml version="1.0" standalone="no"?><!DOCTYPE svg PUBLIC "-//W3C//DTD SVG 1.1//EN" "http://www.w3.org/Graphics/SVG/1.1/DTD/svg11.dtd"><svg t="1544044817061" class="icon" style="" viewBox="0 0 1024 1024" version="1.1" xmlns="http://www.w3.org/2000/svg" p-id="31492" xmlns:xlink="http://www.w3.org/1999/xlink" width="32" height="32"><defs><style type="text/css"></style></defs><path d="M993.28 780.288L589.824 153.6s-20.48-45.056-77.824-45.056c-53.248 0-77.824 45.056-77.824 45.056L30.72 780.288s-10.24 16.37888-10.24 45.056c0 49.152 40.96 90.112 90.112 90.112h804.864c49.15712 0 90.11712-40.96 90.11712-90.112-2.05312-32.768-12.29312-45.056-12.29312-45.056zM913.408 870.4H108.544c-24.576 0-45.056-20.48-45.056-45.056 0-8.19712 2.048-16.384 2.048-18.43712l2.048-2.04288L471.04 178.176l2.048-2.048S487.424 153.6 512 153.6c26.624 0 34.816 18.432 38.912 20.48 0 2.048 2.048 2.048 2.048 6.144l401.408 624.64 2.04288 2.04288c0 2.048 2.048 6.144 2.048 18.43712 0.00512 24.576-20.47488 45.056-45.05088 45.056z m0 0z" fill="#9B9B9B" p-id="31493"></path><path d="M512 661.504c22.528 0 36.864-16.384 36.864-36.864l22.52288-247.808c0-32.768-26.61888-59.392-59.392-59.392-32.768 0-59.392 26.624-59.392 61.44l22.528 243.712c0.00512 22.528 14.34112 38.912 36.86912 38.912zM512 675.84c-32.768 0-59.392 26.624-59.392 59.392 0 32.768 26.624 59.39712 59.392 59.39712 32.768 0 59.392-26.624 59.392-59.39712 0-32.768-26.624-59.392-59.392-59.392z" fill="#00A6D3" p-id="31494"></path></svg>