<?xml version="1.0" standalone="no"?><!DOCTYPE svg PUBLIC "-//W3C//DTD SVG 1.1//EN" "http://www.w3.org/Graphics/SVG/1.1/DTD/svg11.dtd"><svg t="1544044338341" class="icon" style="" viewBox="0 0 1024 1024" version="1.1" xmlns="http://www.w3.org/2000/svg" p-id="23180" xmlns:xlink="http://www.w3.org/1999/xlink" width="32" height="32"><defs><style type="text/css"></style></defs><path d="M33.955571 944.586105A32.040421 32.040421 0 0 1 0.055781 910.686316V530.917053a33.899789 33.899789 0 0 1 67.826526 0v379.769263a33.980632 33.980632 0 0 1-33.926736 33.899789z" fill="#208BB5" p-id="23181"></path><path d="M156.027149 771.691789h-118.568421a33.899789 33.899789 0 0 1 0-67.826526h118.568421a32.040421 32.040421 0 0 1 33.89979 33.89979 33.980632 33.980632 0 0 1-33.89979 33.926736z" fill="#208BB5" p-id="23182"></path><path d="M156.027149 944.613053a32.040421 32.040421 0 0 1-33.899789-33.89979v-172.921263a33.899789 33.899789 0 1 1 67.826526 0v172.921263a36.459789 36.459789 0 0 1-33.926737 33.89979zM990.155992 944.586105a32.040421 32.040421 0 0 1-33.89979-33.899789V530.917053a33.899789 33.899789 0 0 1 67.826526 0v379.769263a36.459789 36.459789 0 0 1-33.926736 33.899789z" fill="#208BB5" p-id="23183"></path><path d="M990.155992 771.691789h-118.568421a33.899789 33.899789 0 0 1 0-67.826526h118.568421A32.040421 32.040421 0 0 1 1024.055781 737.765053a33.980632 33.980632 0 0 1-33.899789 33.926736z" fill="#208BB5" p-id="23184"></path><path d="M871.479781 944.613053a32.040421 32.040421 0 0 1-33.899789-33.89979v-172.921263a33.899789 33.899789 0 1 1 67.826526 0v172.921263a36.459789 36.459789 0 0 1-33.926737 33.89979z" fill="#208BB5" p-id="23185"></path><path d="M281.467149 961.536a32.040421 32.040421 0 0 1-33.899789-33.899789v-244.143158a33.899789 33.899789 0 1 1 67.826526 0v244.143158a33.980632 33.980632 0 0 1-33.926737 33.899789z" fill="#83D2EA" p-id="23186"></path><path d="M678.186307 795.405474H345.898307a98.411789 98.411789 0 0 1-98.330947-98.438737v-20.345263a98.411789 98.411789 0 0 1 98.330947-98.330948h332.288a98.411789 98.411789 0 0 1 98.330948 98.330948v20.345263a100.648421 100.648421 0 0 1-98.330948 98.438737z m-332.288-152.576a30.396632 30.396632 0 0 0-30.504421 30.504421v20.345263a30.396632 30.396632 0 0 0 30.504421 30.504421h332.288a30.396632 30.396632 0 0 0 30.504421-30.504421v-20.345263a30.396632 30.396632 0 0 0-30.504421-30.504421z" fill="#83D2EA" p-id="23187"></path><path d="M742.617465 961.536a32.040421 32.040421 0 0 1-33.899789-33.899789v-244.143158a33.899789 33.899789 0 1 1 67.826526 0v244.143158a32.040421 32.040421 0 0 1-33.926737 33.899789z" fill="#83D2EA" p-id="23188"></path><path d="M511.166518 275.617684a40.421053 40.421053 0 0 1-42.684632-42.684631V190.221474a42.711579 42.711579 0 0 1 85.396211 0v42.711579a42.792421 42.792421 0 0 1-42.711579 42.684631z" fill="#208BB5" p-id="23189"></path><path d="M677.674307 442.152421h-328.757894v-42.711579a166.534737 166.534737 0 0 1 333.042526 0v42.711579z m-234.819368-85.39621h136.623158a80.842105 80.842105 0 0 0-68.311579-38.426948 86.959158 86.959158 0 0 0-68.311579 38.426948z" fill="#208BB5" p-id="23190"></path></svg>