<?xml version="1.0" standalone="no"?><!DOCTYPE svg PUBLIC "-//W3C//DTD SVG 1.1//EN" "http://www.w3.org/Graphics/SVG/1.1/DTD/svg11.dtd"><svg t="1544044500949" class="icon" style="" viewBox="0 0 1024 1024" version="1.1" xmlns="http://www.w3.org/2000/svg" p-id="27167" xmlns:xlink="http://www.w3.org/1999/xlink" width="32" height="32"><defs><style type="text/css"></style></defs><path d="M828.4 649.9h-30V275.2l-183.2-181-405.9 0.3c-11.6 0-21 9.4-21 21v29.7h-30V115.5c0-28.1 22.9-51 51-51l418.2-0.3 200.9 198.5v387.2zM777.4 959.8H209.2c-28.1 0-51-22.9-51-51V281.7h30v627.1c0 11.6 9.4 21 21 21h568.1c11.6 0 21-9.4 21-21h30c0.1 28.1-22.8 51-50.9 51z" fill="#FFFFFF" p-id="27168"></path><path d="M777.4 959.8H209.2c-28.1 0-51-22.9-51-51V281.7c0-8.3 6.7-15 15-15s15 6.7 15 15v627.1c0 11.6 9.4 21 21 21h568.1c11.6 0 21-9.4 21-21 0-8.3 6.7-15 15-15s15 6.7 15 15c0.1 28.1-22.8 51-50.9 51z" fill="#06275B" p-id="27169"></path><path d="M233.9 765.2v83.3c0 17 13.1 30.9 29 30.9h458c15.9 0 29-13.9 29-30.9V271.8L615.1 139.1l-352.2 0.2c-15.9 0-29 13.9-29 30.9v435.1" fill="#5097FF" p-id="27170"></path><path d="M813.4 272L620.5 78v163.3c0 16.7 21.8 30.6 38.8 30.6l154.1 0.1z" fill="#FFFFFF" p-id="27171"></path><path d="M650 86.5l-18.9-19-0.2 0.1-3.4-3.4-418.2 0.3c-28.1 0-51 22.9-51 51v29.7c0 8.3 6.7 15 15 15s15-6.7 15-15V115.5c0-11.6 9.4-21 21-21l396.2-0.3v147.2c0 25.7 28.9 45.6 53.8 45.6h139.1v362.9c0 8.3 6.7 15 15 15s15-6.7 15-15V262.7L650 86.5z m9.2 170.5c-11 0-23.8-9.5-23.8-15.6V114.4L777.3 257H659.2zM173.2 217.2c-8.3 0-15-6.7-15-15v-4.6c0-8.3 6.7-15 15-15s15 6.7 15 15v4.6c0 8.3-6.7 15-15 15z" fill="#06275B" p-id="27172"></path><path d="M472.8 301.7H289.1c-8.3 0-15-6.7-15-15s6.7-15 15-15h183.7c8.3 0 15 6.7 15 15s-6.7 15-15 15zM472.8 430.6H289.1c-8.3 0-15-6.7-15-15s6.7-15 15-15h183.7c8.3 0 15 6.7 15 15s-6.7 15-15 15z" fill="#06275B" p-id="27173"></path><path d="M620.4 559.5H289.1c-8.3 0-15-6.7-15-15s6.7-15 15-15h331.3c8.3 0 15 6.7 15 15s-6.7 15-15 15z" fill="#06275B" p-id="27174"></path><path d="M628.2 688.5H289.1c-8.3 0-15-6.7-15-15s6.7-15 15-15h339.1c8.3 0 15 6.7 15 15s-6.7 15-15 15z" fill="#06275B" p-id="27175"></path><path d="M665.3 788.9l58.1 61.9c5.7 6 15.2 6.3 21.2 0.7 6-5.7 6.3-15.2 0.7-21.2l-34.4-36.6h139.9c8.3 0 15-6.7 15-15v-0.2-0.2c0-8.3-6.7-15-15-15H710.9l34.4-36.6c5.7-6 5.4-15.5-0.7-21.2-2.9-2.7-6.6-4.1-10.3-4.1-4 0-8 1.6-10.9 4.7L665.3 768c-2.7 2.9-4.1 6.6-4.1 10.4 0 3.8 1.4 7.6 4.1 10.5z" fill="#06265B" p-id="27176"></path></svg>